<svg xmlns="http://www.w3.org/2000/svg" width="511.927" height="456.289" viewBox="0 0 468.969 418">
  <metadata><?xpacket begin="﻿" id="W5M0MpCehiHzreSzNTczkc9d"?>
<x:xmpmeta xmlns:x="adobe:ns:meta/" x:xmptk="Adobe XMP Core 5.6-c138 79.159824, 2016/09/14-01:09:01        ">
   <rdf:RDF xmlns:rdf="http://www.w3.org/1999/02/22-rdf-syntax-ns#">
      <rdf:Description rdf:about=""/>
   </rdf:RDF>
</x:xmpmeta>
                                                                                                    
                                                                                                    
                                                                                                    
                                                                                                    
                                                                                                    
                                                                                                    
                                                                                                    
                                                                                                    
                                                                                                    
                                                                                                    
                                                                                                    
                                                                                                    
                                                                                                    
                                                                                                    
                                                                                                    
                                                                                                    
                                                                                                    
                                                                                                    
                                                                                                    
                                                                                                    
                           
<?xpacket end="w"?></metadata>
<defs>
    <style>
      .cls-1 {
        fill: #fff;
        fill-rule: evenodd;
      }
    </style>
  </defs>
  <path id="seimyna.lt" class="cls-1" d="M154.747,187.665s-7.073,30.709,5.3,49.6S190.1,258.526,190.1,258.526s-64.812,21.087-81.3,76.175-22.4,138.028,107.812,106.291c34.557-8.423,45.952-15.944,45.952-15.944s-63.227-11.607-14.139-60.231c11.934-11.822,31.813-14.173,31.813-14.173s-24.945-13.307-19.441-33.658,20.877-28.551,40.65-24.8C316.3,295,328.32,313.5,322.65,331.158s-24.744,21.258-24.744,21.258,31.787,7.182,38.883,33.659,0,37.2,0,37.2,34.835,19.417,76,12.4,47.662-54.032,33.58-95.662-60.091-60.231-60.091-60.231,24.946-4.7,31.813-26.573a50.31,50.31,0,0,0-3.535-38.973l44.185,88.575s8.607,12.39,19.442,7.087c11.149-5.458,7.069-19.487,7.069-19.487s-61.23-136.746-88.37-177.152S336.031,30,308.51,30,177.723,83.145,177.723,83.145s-4.848-23.669-14.139-24.8S122.3,84.326,121.166,92,130,111.49,130,111.49,42.617,160.87,23.959,182.35s1.813,84.912,42.417,72.633S154.747,187.665,154.747,187.665Zm44.185-33.659s57.016-1.225,60.091,47.831c2.683,42.809-26.511,53.146-26.511,53.146s49.635,6.986,70.7,31.887c2.542,3,16.591-13.942,38.883-12.4-0.769-3.466-23.228-20.9-17.674-47.831,2.961-14.362,16.185-41.42,51.254-38.973,24.6,1.716,33.581,19.487,33.581,19.487S357.146,96.894,308.51,97.318C258.022,97.758,198.932,154.006,198.932,154.006Z" transform="translate(-17 -30)"/>
</svg>
